<svg id="Capa_1" enable-background="new 0 0 605.746 605.746" height="512" viewBox="0 0 605.746 605.746" width="512" xmlns="http://www.w3.org/2000/svg"><g><g id="Page-1_7_"><g id="_x30_08---Art" transform="translate(-1)"><path id="Shape_35_" d="m152.478 302.872c0-27.874-22.596-50.47-50.47-50.47s-50.47 22.596-50.47 50.47 22.596 50.47 50.47 50.47c27.86-.033 50.436-22.61 50.47-50.47zm-50.47 30.282c-16.724 0-30.282-13.558-30.282-30.282s13.558-30.282 30.282-30.282 30.282 13.558 30.282 30.282-13.558 30.282-30.282 30.282z"/><path id="Shape_34_" d="m125.446 409.93c-19.706 19.711-19.703 51.665.006 71.373 19.71 19.708 51.663 19.708 71.373 0s19.712-51.661.006-71.373c-19.729-19.672-51.656-19.672-71.385 0zm57.102 57.112c-11.826 11.824-30.999 11.823-42.824-.002s-11.825-30.998 0-42.824 30.998-11.827 42.824-.002c11.801 11.837 11.801 30.99 0 42.828z"/><path id="Shape_33_" d="m303.889 454.283c-27.874 0-50.47 22.596-50.47 50.47s22.596 50.47 50.47 50.47 50.47-22.596 50.47-50.47c-.033-27.86-22.61-50.437-50.47-50.47zm0 80.752c-16.724 0-30.282-13.558-30.282-30.282s13.558-30.282 30.282-30.282 30.282 13.558 30.282 30.282-13.558 30.282-30.282 30.282z"/><path id="Shape_32_" d="m410.946 481.315c19.711 19.706 51.665 19.703 71.373-.006 19.708-19.71 19.708-51.663 0-71.373s-51.661-19.712-71.373-.006c-9.498 9.45-14.837 22.295-14.837 35.693 0 13.397 5.34 26.242 14.837 35.692zm14.283-57.102c11.826-11.824 30.999-11.823 42.824.002s11.825 30.998 0 42.824-30.998 11.827-42.824.002c-11.8-11.837-11.8-30.99 0-42.828z"/><path id="Shape_31_" d="m505.77 353.342c27.874 0 50.47-22.596 50.47-50.47s-22.596-50.47-50.47-50.47-50.47 22.596-50.47 50.47c.033 27.86 22.61 50.437 50.47 50.47zm0-80.752c16.724 0 30.282 13.558 30.282 30.282s-13.558 30.282-30.282 30.282-30.282-13.558-30.282-30.282 13.558-30.282 30.282-30.282z"/><path id="Shape_30_" d="m530.187 11.618-165.734 143.013v-103.909c-.072-27.383-21.906-49.744-49.279-50.47-3.745-.101-7.56-.202-11.285-.202-83.581.133-163.422 34.665-220.757 95.48-80.3 85.469-104.032 209.617-60.919 318.677s145.32 183.423 262.355 190.881c6.561.404 13.099.606 19.613.606 76.989.237 151.12-29.147 207.039-82.065 79.71-75.052 112.844-187.205 86.718-293.525-5.583-22.539-25.847-38.343-49.067-38.267h-66.863l112.993-115.072c16.278-18.165 15.55-45.877-1.658-63.164-17.209-17.286-44.917-18.139-63.156-1.943zm-160.394 229.61c-7.174-9.847-16.966-17.484-28.263-22.045l23.812-34.925 47.028 47.028-34.996 23.893c-1.918-4.958-4.466-9.646-7.581-13.951zm-49.643-6.561c13.322.923 25.548 7.707 33.381 18.523 9.876 14.226 11.226 32.699 3.523 48.209-16.039 33.31-59.807 33.532-84.477 30.676-4.144-.376-7.461-3.6-7.954-7.732-2.261-19.401-3.028-54.992 17.231-75.281 9.174-9.255 21.651-14.484 34.683-14.535 1.201-.002 2.402.049 3.613.14zm228.722-22.641c13.921-.043 26.077 9.411 29.465 22.914 5.46 22.231 8.209 45.041 8.186 67.933.104 152.652-121.026 277.803-273.6 282.682-152.575 4.878-281.453-112.278-291.103-264.625-4.99-77.938 22.491-154.466 75.922-211.425s128.049-89.27 206.146-89.267c3.543 0 7.177.101 10.629.202 16.469.398 29.643 13.808 29.747 30.282v110.833c.092 4.878.894 9.717 2.382 14.364l-26.305 38.59c-19.686-1.092-38.899 6.289-52.792 20.279-26.295 26.305-25.71 68.872-23.004 91.856 1.579 13.431 12.234 23.985 25.679 25.437 6.925.823 13.891 1.244 20.864 1.262 40.568 0 70.658-15.232 84.154-43.213 5.002-10.484 7.303-22.053 6.692-33.654l46.009-31.372c4.284-2.895 8.214-6.283 11.709-10.094l22.54-22.984zm31.422-149.13-152.43 155.287-49.178-49.178 164.846-142.246c10.156-9.055 25.594-8.679 35.298.859s10.343 24.968 1.464 35.278z"/></g></g></g></svg>